<?xml version="1.0" encoding="UTF-8" standalone="no"?>
<!-- Created with Inkscape (http://www.inkscape.org/) -->

<svg
   xmlns:dc="http://purl.org/dc/elements/1.1/"
   xmlns:cc="http://creativecommons.org/ns#"
   xmlns:rdf="http://www.w3.org/1999/02/22-rdf-syntax-ns#"
   xmlns:svg="http://www.w3.org/2000/svg"
   xmlns="http://www.w3.org/2000/svg"
   xmlns:sodipodi="http://sodipodi.sourceforge.net/DTD/sodipodi-0.dtd"
   xmlns:inkscape="http://www.inkscape.org/namespaces/inkscape"
   inkscape:export-ydpi="19.577744"
   inkscape:export-xdpi="19.577744"
   inkscape:export-filename="C:\tasora\lavori\html\artwork\chronoengine\logos\logo_projectchrono_h90.png"
   sodipodi:docname="logo_projectchrono.svg"
   xml:space="preserve"
   height="413.735"
   width="768.11875"
   inkscape:version="0.48.4 r9939"
   version="1.1"
   id="svg3011"><metadata
     id="metadata3017"><rdf:RDF><cc:Work
         rdf:about=""><dc:format>image/svg+xml</dc:format><dc:type
           rdf:resource="http://purl.org/dc/dcmitype/StillImage" /><dc:title></dc:title></cc:Work></rdf:RDF></metadata><defs
     id="defs3015"><clipPath
       clipPathUnits="userSpaceOnUse"
       id="clipPath3127"><path
         d="m 0,330.988 534.495,0 L 534.495,0 0,0 0,330.988 z"
         id="path3129" /></clipPath><pattern
       patternUnits="userSpaceOnUse"
       width="399.09375"
       height="399.09375"
       patternTransform="matrix(0.8,0,0,-0.8,4.78798,324.80681)"
       id="pattern11695"><path
         transform="translate(22.78125,0.625)"
         d="m 375.8168,198.91624 a 199.04372,199.04372 0 1 1 -398.08743,0 199.04372,199.04372 0 1 1 398.08743,0 z"
         sodipodi:ry="199.04372"
         sodipodi:rx="199.04372"
         sodipodi:cy="198.91624"
         sodipodi:cx="176.77309"
         id="path5530"
         style="fill:none;stroke:#000000;stroke-opacity:1"
         sodipodi:type="arc" /></pattern></defs><sodipodi:namedview
     pagecolor="#ffffff"
     bordercolor="#666666"
     borderopacity="1"
     objecttolerance="10"
     gridtolerance="10"
     guidetolerance="10"
     inkscape:pageopacity="0"
     inkscape:pageshadow="2"
     inkscape:window-width="1527"
     inkscape:window-height="837"
     id="namedview3013"
     showgrid="false"
     inkscape:zoom="1.0776527"
     inkscape:cx="264.72929"
     inkscape:cy="170.20195"
     inkscape:window-x="181"
     inkscape:window-y="78"
     inkscape:window-maximized="0"
     inkscape:current-layer="g3019" /><g
     id="g3019"
     inkscape:groupmode="layer"
     inkscape:label="ChronoEngine Logo"
     transform="matrix(1.25,0,0,-1.25,0,413.735)"><g
   id="g12432"
   style="fill:#818181;fill-opacity:1"><path
     id="path3021"
     style="fill:#818181;fill-opacity:1;fill-rule:nonzero;stroke:none"
     d="m 158.233,277.997 14.53,0 0,52.991 -14.53,0 0,-52.991 z" /><g
     style="fill:#818181;fill-opacity:1"
     transform="translate(153.1162,277.5498)"
     id="g3023"><path
       id="path3025"
       style="fill:#818181;fill-opacity:1;fill-rule:nonzero;stroke:none"
       d="M 0,0 -14.309,-2.523 -23.51,49.663 -9.201,52.187 0,0 z" /></g><g
     style="fill:#818181;fill-opacity:1"
     transform="translate(133.8457,273.6973)"
     id="g3027"><path
       id="path3029"
       style="fill:#818181;fill-opacity:1;fill-rule:nonzero;stroke:none"
       d="M 0,0 -13.652,-4.969 -31.776,44.826 -18.123,49.797 0,0 z" /></g><g
     style="fill:#818181;fill-opacity:1"
     transform="translate(115.5371,266.5576)"
     id="g3031"><path
       id="path3033"
       style="fill:#818181;fill-opacity:1;fill-rule:nonzero;stroke:none"
       d="M 0,0 -12.582,-7.265 -39.077,38.628 -26.494,45.894 0,0 z" /></g><g
     style="fill:#818181;fill-opacity:1"
     transform="translate(98.7471,256.3467)"
     id="g3035"><path
       id="path3037"
       style="fill:#818181;fill-opacity:1;fill-rule:nonzero;stroke:none"
       d="m 0,0 -11.13,-9.339 -34.061,40.595 11.129,9.34 L 0,0 z" /></g><g
     style="fill:#818181;fill-opacity:1"
     transform="translate(83.9844,243.375)"
     id="g3039"><path
       id="path3041"
       style="fill:#818181;fill-opacity:1;fill-rule:nonzero;stroke:none"
       d="M 0,0 -9.339,-11.129 -49.932,22.935 -40.593,34.064 0,0 z" /></g><g
     style="fill:#818181;fill-opacity:1"
     transform="translate(71.6992,228.0371)"
     id="g3043"><path
       id="path3045"
       style="fill:#818181;fill-opacity:1;fill-rule:nonzero;stroke:none"
       d="M 0,0 -7.265,-12.581 -53.156,13.916 -45.892,26.498 0,0 z" /></g><g
     style="fill:#818181;fill-opacity:1"
     transform="translate(62.2637,210.7988)"
     id="g3047"><path
       id="path3049"
       style="fill:#818181;fill-opacity:1;fill-rule:nonzero;stroke:none"
       d="M 0,0 -4.969,-13.65 -54.766,4.475 -49.796,18.127 0,0 z" /></g><g
     style="fill:#818181;fill-opacity:1"
     transform="translate(55.9648,192.1855)"
     id="g3051"><path
       id="path3053"
       style="fill:#818181;fill-opacity:1;fill-rule:nonzero;stroke:none"
       d="M 0,0 -2.522,-14.307 -54.711,-5.104 -52.188,9.204 0,0 z" /></g><g
     style="fill:#818181;fill-opacity:1"
     transform="translate(0,158.2335)"
     id="g3055"><path
       id="path3057"
       style="fill:#818181;fill-opacity:1;fill-rule:nonzero;stroke:none"
       d="m 0,0 52.994,0 0,14.526 L 0.001,14.528 0,0 z" /></g><g
     style="fill:#818181;fill-opacity:1"
     transform="translate(53.4424,153.1133)"
     id="g3059"><path
       id="path3061"
       style="fill:#818181;fill-opacity:1;fill-rule:nonzero;stroke:none"
       d="M 0,0 2.522,-14.306 -49.667,-23.508 -52.189,-9.2 0,0 z" /></g><g
     style="fill:#818181;fill-opacity:1"
     transform="translate(57.2949,133.8437)"
     id="g3063"><path
       id="path3065"
       style="fill:#818181;fill-opacity:1;fill-rule:nonzero;stroke:none"
       d="M 0,0 4.968,-13.65 -44.83,-31.775 -49.799,-18.123 0,0 z" /></g><g
     style="fill:#818181;fill-opacity:1"
     transform="translate(64.4355,115.5361)"
     id="g3067"><path
       id="path3069"
       style="fill:#818181;fill-opacity:1;fill-rule:nonzero;stroke:none"
       d="M 0,0 7.262,-12.581 -38.632,-39.077 -45.896,-26.495 0,0 z" /></g><g
     style="fill:#818181;fill-opacity:1"
     transform="translate(74.6465,98.7461)"
     id="g3071"><path
       id="path3073"
       style="fill:#818181;fill-opacity:1;fill-rule:nonzero;stroke:none"
       d="M 0,0 9.336,-11.129 -31.26,-45.191 -40.599,-34.063 0,0 z" /></g><g
     style="fill:#818181;fill-opacity:1"
     transform="translate(87.6172,83.9844)"
     id="g3075"><path
       id="path3077"
       style="fill:#818181;fill-opacity:1;fill-rule:nonzero;stroke:none"
       d="M 0,0 11.127,-9.339 -22.937,-49.933 -34.066,-40.595 0,0 z" /></g><g
     style="fill:#818181;fill-opacity:1"
     transform="translate(102.9541,71.6992)"
     id="g3079"><path
       id="path3081"
       style="fill:#818181;fill-opacity:1;fill-rule:nonzero;stroke:none"
       d="M 0,0 12.58,-7.265 -13.918,-53.157 -26.499,-45.894 0,0 z" /></g><g
     style="fill:#818181;fill-opacity:1"
     transform="translate(120.1914,62.2646)"
     id="g3083"><path
       id="path3085"
       style="fill:#818181;fill-opacity:1;fill-rule:nonzero;stroke:none"
       d="M 0,0 13.65,-4.97 -4.476,-54.767 -18.127,-49.798 0,0 z" /></g><g
     style="fill:#818181;fill-opacity:1"
     transform="translate(138.8057,55.9658)"
     id="g3087"><path
       id="path3089"
       style="fill:#818181;fill-opacity:1;fill-rule:nonzero;stroke:none"
       d="M 0,0 14.306,-2.523 5.103,-54.712 -9.204,-52.188 0,0 z" /></g><g
     style="fill:#818181;fill-opacity:1"
     transform="translate(158.2281,9e-4)"
     id="g3091"><path
       id="path3093"
       style="fill:#818181;fill-opacity:1;fill-rule:nonzero;stroke:none"
       d="M 0,0 14.528,-0.001 14.53,52.993 0.003,52.994 0,0 z" /></g><g
     style="fill:#818181;fill-opacity:1"
     transform="translate(177.876,53.4434)"
     id="g3095"><path
       id="path3097"
       style="fill:#818181;fill-opacity:1;fill-rule:nonzero;stroke:none"
       d="m 0,0 14.307,2.521 9.2,-52.189 L 9.2,-52.189 0,0 z" /></g><g
     style="fill:#818181;fill-opacity:1"
     transform="translate(197.1455,57.2959)"
     id="g3099"><path
       id="path3101"
       style="fill:#818181;fill-opacity:1;fill-rule:nonzero;stroke:none"
       d="M 0,0 13.651,4.967 31.774,-44.832 18.123,-49.8 0,0 z" /></g><g
     style="fill:#818181;fill-opacity:1"
     transform="translate(243.375,247.0039)"
     id="g3103"><path
       id="path3105"
       style="fill:#818181;fill-opacity:1;fill-rule:nonzero;stroke:none"
       d="M 0,0 -11.129,9.34 22.935,49.933 34.064,40.597 0,0 z" /></g><g
     style="fill:#818181;fill-opacity:1"
     transform="translate(228.0381,259.2891)"
     id="g3107"><path
       id="path3109"
       style="fill:#818181;fill-opacity:1;fill-rule:nonzero;stroke:none"
       d="M 0,0 -12.582,7.266 13.915,53.156 26.497,45.896 0,0 z" /></g><g
     style="fill:#818181;fill-opacity:1"
     transform="translate(210.8008,268.7246)"
     id="g3111"><path
       id="path3113"
       style="fill:#818181;fill-opacity:1;fill-rule:nonzero;stroke:none"
       d="M 0,0 -13.652,4.971 4.473,54.766 18.125,49.8 0,0 z" /></g><g
     style="fill:#818181;fill-opacity:1"
     transform="translate(192.1875,275.0234)"
     id="g3115"><path
       id="path3117"
       style="fill:#818181;fill-opacity:1;fill-rule:nonzero;stroke:none"
       d="M 0,0 -14.309,2.524 -5.106,54.711 9.201,52.19 0,0 z" /></g></g><text
   xml:space="preserve"
   style="font-size:32px;font-style:normal;font-variant:normal;font-weight:normal;font-stretch:normal;line-height:125%;letter-spacing:0px;word-spacing:0px;fill:#818181;fill-opacity:1;stroke:none;font-family:Eurostile;-inkscape-font-specification:Eurostile"
   x="89.82486"
   y="-167.02971"
   id="text3139"
   sodipodi:linespacing="125%"
   transform="scale(1,-1)"><tspan
     sodipodi:role="line"
     id="tspan3141"
     x="89.82486"
     y="-167.02971"
     style="font-size:108px;font-weight:bold;fill:#818181;fill-opacity:1;-inkscape-font-specification:Eurostile Bold">PROJECT</tspan></text>

<flowRoot
   xml:space="preserve"
   id="flowRoot3143"
   style="font-size:40px;font-style:normal;font-variant:normal;font-weight:normal;font-stretch:normal;line-height:125%;letter-spacing:0px;word-spacing:0px;fill:#000000;fill-opacity:1;stroke:none;font-family:Eurostile;-inkscape-font-specification:Eurostile"
   transform="matrix(0.8,0,0,-0.8,0,330.988)"><flowRegion
     id="flowRegion3145"><rect
       id="rect3147"
       width="37.11771"
       height="73.30748"
       x="59.388336"
       y="490.75424" /></flowRegion><flowPara
     id="flowPara3149">ENGINE</flowPara></flowRoot><text
   xml:space="preserve"
   style="font-size:33.15205765000000300px;font-style:normal;font-variant:normal;font-weight:normal;font-stretch:normal;line-height:125%;letter-spacing:0px;word-spacing:0px;fill:#ff5303;fill-opacity:1;stroke:none;font-family:Eurostile;-inkscape-font-specification:Eurostile"
   x="88.159584"
   y="-86.017563"
   id="text3151"
   sodipodi:linespacing="125%"
   transform="scale(1.0360019,-0.96524924)"><tspan
     sodipodi:role="line"
     id="tspan3153"
     x="88.159584"
     y="-86.017563"
     style="font-size:111.88819884999999000px;fill:#ff5303;fill-opacity:1">CHRONO</tspan></text>

<flowRoot
   xml:space="preserve"
   id="flowRoot3155"
   style="fill:black;stroke:none;stroke-opacity:1;stroke-width:1px;stroke-linejoin:miter;stroke-linecap:butt;fill-opacity:1;font-family:Eurostile;font-style:normal;font-weight:normal;font-size:40px;line-height:125%;letter-spacing:0px;word-spacing:0px;-inkscape-font-specification:Eurostile;font-stretch:normal;font-variant:normal"><flowRegion
     id="flowRegion3157"><rect
       id="rect3159"
       width="109.49725"
       height="82.586906"
       x="134.5517"
       y="516.73663" /></flowRegion><flowPara
     id="flowPara3161" /></flowRoot><rect
   style="stroke:none;fill:url(#pattern11695)"
   width="319.275"
   height="-319.275"
   x="4.78798"
   y="324.80681"
   id="rect11698" /></g></svg>